HIERARCHY
ROOT Pelvis
{
	OFFSET 0.000000 0.000000 0.000000
	CHANNELS 6 Xposition Yposition Zposition Xrotation Yrotation Zrotation
	JOINT LeftUpLeg_virtual
	{
		OFFSET 0.000000 0.000000 0.000000
		CHANNELS 3 Xrotation Yrotation Zrotation
		JOINT LeftUpLeg
		{
			OFFSET 18.735201 -5.666702 -4.541200
			CHANNELS 3 Xrotation Yrotation Zrotation
			JOINT LeftLeg
			{
				OFFSET -0.021200 -31.938179 0.493100
				CHANNELS 3 Xrotation Yrotation Zrotation
				JOINT LeftFoot
				{
					OFFSET 0.021200 -31.938179 -4.336299
					CHANNELS 3 Xrotation Yrotation Zrotation
					JOINT LeftToeBase
					{
						OFFSET 0.943001 -26.722000 15.023500
						CHANNELS 3 Xrotation Yrotation Zrotation
						End Site
						{
							OFFSET 0 0 0
						}
					}
				}
			}
		}
	}
	JOINT RightUpLeg_virtual
	{
		OFFSET 0.000000 0.000000 0.000000
		CHANNELS 3 Xrotation Yrotation Zrotation
		JOINT RightUpLeg
		{
			OFFSET -18.735201 -5.666702 -4.541200
			CHANNELS 3 Xrotation Yrotation Zrotation
			JOINT RightLeg
			{
				OFFSET 0.018946 -31.938133 0.493100
				CHANNELS 3 Xrotation Yrotation Zrotation
				JOINT RightFoot
				{
					OFFSET -0.018946 -31.938126 -4.336299
					CHANNELS 3 Xrotation Yrotation Zrotation
					JOINT RightToeBase
					{
						OFFSET -0.943001 -26.722004 15.023500
						CHANNELS 3 Xrotation Yrotation Zrotation
						End Site
						{
							OFFSET 0 0 0
						}
					}
				}
			}
		}
	}
	JOINT Hips_virtual
	{
		OFFSET 0.000000 0.000000 0.000000
		CHANNELS 3 Xrotation Yrotation Zrotation
		JOINT Hips
		{
			OFFSET -0.000000 -0.000000 -0.000000
			CHANNELS 3 Xrotation Yrotation Zrotation
			JOINT Spine
			{
				OFFSET 0.000000 10.199997 -0.299500
				CHANNELS 3 Xrotation Yrotation Zrotation
				JOINT Spine1
				{
					OFFSET 0.000000 11.900002 -1.516600
					CHANNELS 3 Xrotation Yrotation Zrotation
					JOINT Spine2
					{
						OFFSET 0.000000 13.600006 -2.842500
						CHANNELS 3 Xrotation Yrotation Zrotation
						JOINT Neck_virtual
						{
							OFFSET 0.000000 0.000000 0.000000
							CHANNELS 3 Xrotation Yrotation Zrotation
							JOINT Neck
							{
								OFFSET 0.000000 9.624100 -2.890100
								CHANNELS 3 Xrotation Yrotation Zrotation
								JOINT Head
								{
									OFFSET 0.000000 14.068802 -1.351900
									CHANNELS 3 Xrotation Yrotation Zrotation
									End Site
									{
										OFFSET 0 0 0
									}
								}
							}
						}
						JOINT LeftShoulder_virtual
						{
							OFFSET 0.000000 0.000000 0.000000
							CHANNELS 3 Xrotation Yrotation Zrotation
							JOINT LeftShoulder
							{
								OFFSET 15.263000 10.923401 -0.547700
								CHANNELS 3 Xrotation Yrotation Zrotation
								JOINT LeftArm
								{
									OFFSET 25.438599 -2.830597 -13.032500
									CHANNELS 3 Xrotation Yrotation Zrotation
									JOINT LeftForeArm
									{
										OFFSET 29.960503 0.000000 0.000000
										CHANNELS 3 Xrotation Yrotation Zrotation
										JOINT LeftHand
										{
											OFFSET 27.849251 0.000000 0.000000
											CHANNELS 3 Xrotation Yrotation Zrotation
											End Site
											{
												OFFSET 0 0 0
											}
										}
									}
								}
							}
						}
						JOINT RightShoulder_virtual
						{
							OFFSET 0.000000 0.000000 0.000000
							CHANNELS 3 Xrotation Yrotation Zrotation
							JOINT RightShoulder
							{
								OFFSET -15.263000 10.923401 -0.547700
								CHANNELS 3 Xrotation Yrotation Zrotation
								JOINT RightArm
								{
									OFFSET -25.438599 -2.830597 -13.032500
									CHANNELS 3 Xrotation Yrotation Zrotation
									JOINT RightForeArm
									{
										OFFSET -29.960503 0.000000 0.000000
										CHANNELS 3 Xrotation Yrotation Zrotation
										JOINT RightHand
										{
											OFFSET -27.849251 0.000000 0.000000
											CHANNELS 3 Xrotation Yrotation Zrotation
											End Site
											{
												OFFSET 0 0 0
											}
										}
									}
								}
							}
						}
					}
				}
			}
		}
	}
}
MOTION
Frames: 5
Frame Time: 0.03333333
-3.958070 86.892326 2.614483 0.000000 0.000000 0.000000 0.824605 -41.727022 0.431184 -41.305166 -0.954900 14.694052 42.428889 -6.863456 -1.142036 -8.153028 -6.485894 -11.418901 0.000000 0.000000 0.000000 12.580539 -36.388072 2.269866 -16.825917 -16.282915 -18.747759 33.996560 -3.712577 1.664650 -16.862284 -8.508115 11.725034 0.000000 0.000000 0.000000 1.501526 -13.119044 -0.610557 -14.983495 -43.255356 -7.635474 14.786712 10.059760 -2.798013 7.587675 6.392871 -2.002097 0.000000 0.000000 0.000000 7.798088 5.485135 -2.290223 1.044569 2.043987 -0.407675 0.000000 0.000000 0.000000 8.443020 7.225700 -2.702649 4.062404 6.457620 -8.846230 -0.571114 -10.184308 -52.359701 1.780497 -44.241536 -3.714893 0.000000 0.000000 0.000000 8.689274 6.115485 -0.284299 1.933125 17.583257 7.866875 -11.019942 -7.898579 48.708473 -4.753226 31.374573 9.557624 0.000000 0.000000 0.000000 
-2.967501 87.366959 2.822931 0.000000 0.000000 0.000000 0.337456 -41.976065 0.207452 -41.894741 -1.045721 14.644359 42.684864 -7.408744 -1.456807 -7.826680 -6.929725 -12.336834 0.000000 0.000000 0.000000 12.837712 -35.549038 2.546273 -16.392237 -16.172442 -18.295695 34.456361 -3.322534 2.003934 -16.643267 -8.303304 12.461859 0.000000 0.000000 0.000000 -0.838975 -10.107026 -2.521062 -9.591144 -44.278569 -5.262675 13.418390 10.517883 -3.124947 7.107004 6.750650 -2.039275 0.000000 0.000000 0.000000 7.550956 5.620877 -2.773685 0.982751 2.093074 -0.298746 0.000000 0.000000 0.000000 8.046612 7.381472 -2.848255 3.925663 5.984724 -8.556049 -3.078242 -9.182310 -53.500418 3.275617 -46.169924 -1.883777 0.000000 0.000000 0.000000 8.878939 6.607295 -0.933298 3.139978 16.637928 7.872879 -10.645984 -11.839197 48.309952 -6.347870 29.403158 10.553879 0.000000 0.000000 0.000000 
-2.794082 87.290276 2.476385 0.000000 0.000000 0.000000 0.586911 -41.165813 0.734692 -41.789095 -0.992072 15.152261 43.106652 -7.690658 -1.543540 -7.330802 -7.223148 -12.731676 0.000000 0.000000 0.000000 14.098656 -34.741962 3.631839 -14.852444 -16.314841 -17.243545 34.144256 -3.296540 2.387579 -16.937011 -8.496603 13.030626 0.000000 0.000000 0.000000 0.276368 -8.573666 -1.452585 -10.212552 -45.378431 -4.622606 12.928042 10.619862 -3.576361 6.201350 6.973287 -2.098937 0.000000 0.000000 0.000000 8.074180 5.857505 -2.613552 0.880117 2.083060 -0.173390 0.000000 0.000000 0.000000 8.552688 8.275199 -2.863450 3.806965 5.644750 -9.158148 -4.212442 -6.937740 -56.230417 3.440711 -44.937403 -1.852314 0.000000 0.000000 0.000000 9.226954 7.166708 -1.310134 3.693757 16.471795 8.250950 -9.706504 -10.743541 50.092023 -6.618642 26.782787 10.248445 0.000000 0.000000 0.000000 
-2.949317 87.420959 2.506243 0.000000 0.000000 0.000000 0.071820 -40.622215 0.451772 -42.127005 -0.920785 15.026833 43.413290 -7.610593 -1.682014 -6.801219 -7.160400 -12.950184 0.000000 0.000000 0.000000 13.388515 -33.982418 3.643049 -15.477472 -15.997833 -16.809721 34.759311 -3.421943 2.330933 -16.573341 -8.550355 12.852515 0.000000 0.000000 0.000000 -0.129613 -7.277894 -1.900204 -8.719218 -44.873673 -5.011241 12.058692 10.532193 -2.763097 6.835231 7.283943 -2.642721 0.000000 0.000000 0.000000 8.646097 5.883880 -2.839666 0.942697 2.274961 -0.236375 0.000000 0.000000 0.000000 9.977248 8.123018 -3.178763 3.723893 4.397826 -8.503140 -5.578148 -9.176075 -57.328182 2.035851 -47.048508 -2.180040 0.000000 0.000000 0.000000 10.511614 7.617150 -1.728608 3.289326 15.586285 9.314533 -8.245006 -11.860507 52.032258 -6.706528 31.115623 11.600252 0.000000 0.000000 0.000000 
-2.699471 87.230370 2.699722 0.000000 0.000000 0.000000 -0.201870 -41.693500 0.025140 -42.258240 -1.102193 14.590553 43.367634 -7.453925 -1.748047 -6.815706 -6.957568 -12.933368 0.000000 0.000000 0.000000 13.330887 -34.431762 3.348803 -15.599488 -16.073590 -17.203044 34.587149 -3.472000 2.426895 -16.924780 -8.649241 12.939904 0.000000 0.000000 0.000000 1.207710 -6.698450 -2.230174 -13.608224 -46.394569 -6.773781 12.916372 10.412185 -3.043878 6.853883 6.937660 -2.447395 0.000000 0.000000 0.000000 9.017623 5.676726 -2.664164 0.741266 1.954632 -0.015646 0.000000 0.000000 0.000000 10.096614 8.068415 -3.378671 3.812030 4.893343 -8.699620 -2.856800 -7.478928 -56.090811 2.466175 -46.936186 -1.452442 0.000000 0.000000 0.000000 10.848630 7.733501 -1.716955 3.603300 14.995450 10.135198 -6.437970 -12.370025 52.550584 -6.241871 31.814550 12.001400 0.000000 0.000000 0.000000 
